<mxfile host="Electron" agent="Mozilla/5.0 (X11; Linux x86_64) AppleWebKit/537.36 (KHTML, like Gecko) draw.io/26.1.1 Chrome/132.0.6834.210 Electron/34.3.3 Safari/537.36" version="26.1.1">
  <diagram name="Page-1" id="aeegKRYO5-5cE-at2VME">
    <mxGraphModel dx="954" dy="1509" grid="1" gridSize="10" guides="1" tooltips="1" connect="1" arrows="1" fold="1" page="1" pageScale="1" pageWidth="1100" pageHeight="850" math="0" shadow="0">
      <root>
        <mxCell id="0" />
        <mxCell id="1" parent="0" />
        <mxCell id="jPzO7c27cUPiiFDw-lQR-5" style="edgeStyle=orthogonalEdgeStyle;rounded=0;orthogonalLoop=1;jettySize=auto;html=1;entryX=0;entryY=0.5;entryDx=0;entryDy=0;" edge="1" parent="1" source="jPzO7c27cUPiiFDw-lQR-1" target="jPzO7c27cUPiiFDw-lQR-4">
          <mxGeometry relative="1" as="geometry" />
        </mxCell>
        <mxCell id="jPzO7c27cUPiiFDw-lQR-6" style="edgeStyle=orthogonalEdgeStyle;rounded=0;orthogonalLoop=1;jettySize=auto;html=1;exitX=1;exitY=0.5;exitDx=0;exitDy=0;entryX=0;entryY=0.5;entryDx=0;entryDy=0;" edge="1" parent="1" source="jPzO7c27cUPiiFDw-lQR-1" target="jPzO7c27cUPiiFDw-lQR-3">
          <mxGeometry relative="1" as="geometry" />
        </mxCell>
        <mxCell id="jPzO7c27cUPiiFDw-lQR-7" style="edgeStyle=orthogonalEdgeStyle;rounded=0;orthogonalLoop=1;jettySize=auto;html=1;exitX=1;exitY=0.5;exitDx=0;exitDy=0;entryX=0;entryY=0.5;entryDx=0;entryDy=0;" edge="1" parent="1" source="jPzO7c27cUPiiFDw-lQR-1" target="jPzO7c27cUPiiFDw-lQR-2">
          <mxGeometry relative="1" as="geometry" />
        </mxCell>
        <mxCell id="jPzO7c27cUPiiFDw-lQR-1" value="LOGIN" style="rounded=0;whiteSpace=wrap;html=1;" vertex="1" parent="1">
          <mxGeometry x="60" y="-790" width="120" height="60" as="geometry" />
        </mxCell>
        <mxCell id="jPzO7c27cUPiiFDw-lQR-8" style="edgeStyle=orthogonalEdgeStyle;rounded=0;orthogonalLoop=1;jettySize=auto;html=1;exitX=1;exitY=0.5;exitDx=0;exitDy=0;entryX=0;entryY=0.5;entryDx=0;entryDy=0;" edge="1" parent="1" source="jPzO7c27cUPiiFDw-lQR-2" target="jPzO7c27cUPiiFDw-lQR-1">
          <mxGeometry relative="1" as="geometry">
            <Array as="points">
              <mxPoint x="380" y="-760" />
              <mxPoint x="380" y="-810" />
              <mxPoint x="40" y="-810" />
              <mxPoint x="40" y="-760" />
            </Array>
          </mxGeometry>
        </mxCell>
        <mxCell id="jPzO7c27cUPiiFDw-lQR-2" value="MDP oublié" style="rounded=0;whiteSpace=wrap;html=1;" vertex="1" parent="1">
          <mxGeometry x="240" y="-790" width="120" height="60" as="geometry" />
        </mxCell>
        <mxCell id="jPzO7c27cUPiiFDw-lQR-9" style="edgeStyle=orthogonalEdgeStyle;rounded=0;orthogonalLoop=1;jettySize=auto;html=1;exitX=1;exitY=0.5;exitDx=0;exitDy=0;entryX=0;entryY=0.5;entryDx=0;entryDy=0;" edge="1" parent="1" source="jPzO7c27cUPiiFDw-lQR-3" target="jPzO7c27cUPiiFDw-lQR-1">
          <mxGeometry relative="1" as="geometry">
            <Array as="points">
              <mxPoint x="380" y="-690" />
              <mxPoint x="380" y="-810" />
              <mxPoint x="40" y="-810" />
              <mxPoint x="40" y="-760" />
            </Array>
          </mxGeometry>
        </mxCell>
        <mxCell id="jPzO7c27cUPiiFDw-lQR-3" value="1ère connection" style="rounded=0;whiteSpace=wrap;html=1;" vertex="1" parent="1">
          <mxGeometry x="240" y="-720" width="120" height="60" as="geometry" />
        </mxCell>
        <mxCell id="jPzO7c27cUPiiFDw-lQR-12" style="rounded=0;orthogonalLoop=1;jettySize=auto;html=1;exitX=1;exitY=0;exitDx=0;exitDy=0;entryX=0;entryY=0;entryDx=0;entryDy=0;dashed=1;endArrow=none;startFill=0;" edge="1" parent="1" source="jPzO7c27cUPiiFDw-lQR-4" target="jPzO7c27cUPiiFDw-lQR-14">
          <mxGeometry relative="1" as="geometry">
            <mxPoint x="440" y="-440" as="targetPoint" />
          </mxGeometry>
        </mxCell>
        <mxCell id="jPzO7c27cUPiiFDw-lQR-13" style="rounded=0;orthogonalLoop=1;jettySize=auto;html=1;exitX=1;exitY=1;exitDx=0;exitDy=0;entryX=0;entryY=1;entryDx=0;entryDy=0;endArrow=none;startFill=0;dashed=1;" edge="1" parent="1" source="jPzO7c27cUPiiFDw-lQR-4" target="jPzO7c27cUPiiFDw-lQR-14">
          <mxGeometry relative="1" as="geometry">
            <mxPoint x="440" y="-230" as="targetPoint" />
          </mxGeometry>
        </mxCell>
        <mxCell id="jPzO7c27cUPiiFDw-lQR-4" value="IHM" style="rounded=0;whiteSpace=wrap;html=1;" vertex="1" parent="1">
          <mxGeometry x="240" y="-650" width="120" height="60" as="geometry" />
        </mxCell>
        <mxCell id="jPzO7c27cUPiiFDw-lQR-10" style="edgeStyle=orthogonalEdgeStyle;rounded=0;orthogonalLoop=1;jettySize=auto;html=1;exitX=1;exitY=0.5;exitDx=0;exitDy=0;entryX=0;entryY=0.5;entryDx=0;entryDy=0;" edge="1" parent="1" source="jPzO7c27cUPiiFDw-lQR-1" target="jPzO7c27cUPiiFDw-lQR-1">
          <mxGeometry relative="1" as="geometry">
            <Array as="points">
              <mxPoint x="200" y="-760" />
              <mxPoint x="200" y="-710" />
              <mxPoint x="40" y="-710" />
              <mxPoint x="40" y="-760" />
            </Array>
          </mxGeometry>
        </mxCell>
        <mxCell id="jPzO7c27cUPiiFDw-lQR-18" value="" style="group" vertex="1" connectable="0" parent="1">
          <mxGeometry x="420" y="-800" width="340" height="274.19" as="geometry" />
        </mxCell>
        <mxCell id="jPzO7c27cUPiiFDw-lQR-14" value="" style="rounded=0;whiteSpace=wrap;html=1;strokeWidth=2;fillColor=none;" vertex="1" parent="jPzO7c27cUPiiFDw-lQR-18">
          <mxGeometry width="340" height="200" as="geometry" />
        </mxCell>
        <mxCell id="jPzO7c27cUPiiFDw-lQR-15" value="BLOC A" style="rounded=0;whiteSpace=wrap;html=1;fillColor=#f5f5f5;strokeColor=#666666;fontColor=#333333;" vertex="1" parent="jPzO7c27cUPiiFDw-lQR-18">
          <mxGeometry width="340" height="25.806451612903224" as="geometry" />
        </mxCell>
        <mxCell id="jPzO7c27cUPiiFDw-lQR-16" value="BLOC B" style="rounded=0;whiteSpace=wrap;html=1;fillColor=#dae8fc;strokeColor=#6c8ebf;" vertex="1" parent="jPzO7c27cUPiiFDw-lQR-18">
          <mxGeometry y="25.81" width="81.3" height="44.19" as="geometry" />
        </mxCell>
        <mxCell id="jPzO7c27cUPiiFDw-lQR-17" value="BLOC E" style="rounded=0;whiteSpace=wrap;html=1;fillColor=#f8cecc;strokeColor=#b85450;" vertex="1" parent="jPzO7c27cUPiiFDw-lQR-18">
          <mxGeometry x="81.3" y="25.81" width="258.7" height="124.19" as="geometry" />
        </mxCell>
        <mxCell id="jPzO7c27cUPiiFDw-lQR-31" value="BLOC C" style="rounded=0;whiteSpace=wrap;html=1;fillColor=#e1d5e7;strokeColor=#9673a6;" vertex="1" parent="jPzO7c27cUPiiFDw-lQR-18">
          <mxGeometry y="70" width="81.3" height="40" as="geometry" />
        </mxCell>
        <mxCell id="jPzO7c27cUPiiFDw-lQR-32" value="BLOC F" style="rounded=0;whiteSpace=wrap;html=1;fillColor=#ffe6cc;strokeColor=#d79b00;" vertex="1" parent="jPzO7c27cUPiiFDw-lQR-18">
          <mxGeometry x="81.3" y="150" width="258.7" height="50" as="geometry" />
        </mxCell>
        <mxCell id="jPzO7c27cUPiiFDw-lQR-37" value="BLOC D" style="rounded=0;whiteSpace=wrap;html=1;fillColor=#d5e8d4;strokeColor=#82b366;" vertex="1" parent="jPzO7c27cUPiiFDw-lQR-18">
          <mxGeometry y="110" width="81.3" height="90" as="geometry" />
        </mxCell>
        <mxCell id="jPzO7c27cUPiiFDw-lQR-23" value="USER MANAGEMENT CLICKED" style="rounded=0;whiteSpace=wrap;html=1;fillColor=#dae8fc;strokeColor=#6c8ebf;" vertex="1" parent="1">
          <mxGeometry x="210" y="-570" width="120" height="60" as="geometry" />
        </mxCell>
        <mxCell id="jPzO7c27cUPiiFDw-lQR-24" value="LISTE UTILISATEURS" style="rounded=0;whiteSpace=wrap;html=1;fillColor=#f8cecc;strokeColor=#b85450;" vertex="1" parent="1">
          <mxGeometry x="540" y="-540" width="120" height="60" as="geometry" />
        </mxCell>
        <mxCell id="jPzO7c27cUPiiFDw-lQR-27" style="edgeStyle=orthogonalEdgeStyle;rounded=0;orthogonalLoop=1;jettySize=auto;html=1;entryX=0;entryY=0.5;entryDx=0;entryDy=0;" edge="1" parent="1" source="jPzO7c27cUPiiFDw-lQR-26" target="jPzO7c27cUPiiFDw-lQR-23">
          <mxGeometry relative="1" as="geometry" />
        </mxCell>
        <mxCell id="jPzO7c27cUPiiFDw-lQR-39" style="edgeStyle=orthogonalEdgeStyle;rounded=0;orthogonalLoop=1;jettySize=auto;html=1;exitX=1;exitY=0.5;exitDx=0;exitDy=0;entryX=0;entryY=0.5;entryDx=0;entryDy=0;" edge="1" parent="1" source="jPzO7c27cUPiiFDw-lQR-26" target="jPzO7c27cUPiiFDw-lQR-28">
          <mxGeometry relative="1" as="geometry" />
        </mxCell>
        <mxCell id="jPzO7c27cUPiiFDw-lQR-40" style="edgeStyle=orthogonalEdgeStyle;rounded=0;orthogonalLoop=1;jettySize=auto;html=1;exitX=1;exitY=0.5;exitDx=0;exitDy=0;entryX=0;entryY=0.5;entryDx=0;entryDy=0;" edge="1" parent="1" source="jPzO7c27cUPiiFDw-lQR-26" target="jPzO7c27cUPiiFDw-lQR-38">
          <mxGeometry relative="1" as="geometry" />
        </mxCell>
        <mxCell id="jPzO7c27cUPiiFDw-lQR-49" style="edgeStyle=orthogonalEdgeStyle;rounded=0;orthogonalLoop=1;jettySize=auto;html=1;exitX=1;exitY=0.5;exitDx=0;exitDy=0;entryX=0;entryY=0.5;entryDx=0;entryDy=0;" edge="1" parent="1" source="jPzO7c27cUPiiFDw-lQR-26" target="jPzO7c27cUPiiFDw-lQR-45">
          <mxGeometry relative="1" as="geometry" />
        </mxCell>
        <mxCell id="jPzO7c27cUPiiFDw-lQR-50" style="edgeStyle=orthogonalEdgeStyle;rounded=0;orthogonalLoop=1;jettySize=auto;html=1;exitX=1;exitY=0.5;exitDx=0;exitDy=0;entryX=0;entryY=0.5;entryDx=0;entryDy=0;" edge="1" parent="1" source="jPzO7c27cUPiiFDw-lQR-26" target="jPzO7c27cUPiiFDw-lQR-46">
          <mxGeometry relative="1" as="geometry" />
        </mxCell>
        <mxCell id="jPzO7c27cUPiiFDw-lQR-26" value="IHM" style="rounded=0;whiteSpace=wrap;html=1;" vertex="1" parent="1">
          <mxGeometry x="40" y="-570" width="120" height="60" as="geometry" />
        </mxCell>
        <mxCell id="jPzO7c27cUPiiFDw-lQR-28" value="PROJECT MANAGEMENT CLICKED" style="rounded=0;whiteSpace=wrap;html=1;fillColor=#e1d5e7;strokeColor=#9673a6;" vertex="1" parent="1">
          <mxGeometry x="210" y="-490" width="120" height="60" as="geometry" />
        </mxCell>
        <mxCell id="jPzO7c27cUPiiFDw-lQR-33" value="ADD, EDIT, DELETE USERS" style="rounded=0;whiteSpace=wrap;html=1;fillColor=#ffe6cc;strokeColor=#d79b00;" vertex="1" parent="1">
          <mxGeometry x="540" y="-455" width="120" height="60" as="geometry" />
        </mxCell>
        <mxCell id="jPzO7c27cUPiiFDw-lQR-38" value="PROJECT CLICKED" style="rounded=0;whiteSpace=wrap;html=1;fillColor=#d5e8d4;strokeColor=#82b366;" vertex="1" parent="1">
          <mxGeometry x="210" y="-410" width="120" height="60" as="geometry" />
        </mxCell>
        <mxCell id="jPzO7c27cUPiiFDw-lQR-45" value="USER SETTINGS CLICKED" style="rounded=0;whiteSpace=wrap;html=1;fillColor=#f5f5f5;strokeColor=#666666;fontColor=#333333;" vertex="1" parent="1">
          <mxGeometry x="210" y="-330" width="120" height="60" as="geometry" />
        </mxCell>
        <mxCell id="jPzO7c27cUPiiFDw-lQR-46" value="SEARCH CLICKED" style="rounded=0;whiteSpace=wrap;html=1;fillColor=#f5f5f5;strokeColor=#666666;fontColor=#333333;" vertex="1" parent="1">
          <mxGeometry x="210" y="-250" width="120" height="60" as="geometry" />
        </mxCell>
        <mxCell id="jPzO7c27cUPiiFDw-lQR-52" style="edgeStyle=orthogonalEdgeStyle;rounded=0;orthogonalLoop=1;jettySize=auto;html=1;exitX=1;exitY=0.5;exitDx=0;exitDy=0;entryX=0;entryY=0.5;entryDx=0;entryDy=0;" edge="1" parent="1" source="jPzO7c27cUPiiFDw-lQR-51" target="jPzO7c27cUPiiFDw-lQR-24">
          <mxGeometry relative="1" as="geometry" />
        </mxCell>
        <mxCell id="jPzO7c27cUPiiFDw-lQR-53" style="edgeStyle=orthogonalEdgeStyle;rounded=0;orthogonalLoop=1;jettySize=auto;html=1;exitX=1;exitY=0.5;exitDx=0;exitDy=0;entryX=0;entryY=0.5;entryDx=0;entryDy=0;" edge="1" parent="1" source="jPzO7c27cUPiiFDw-lQR-51" target="jPzO7c27cUPiiFDw-lQR-33">
          <mxGeometry relative="1" as="geometry" />
        </mxCell>
        <mxCell id="jPzO7c27cUPiiFDw-lQR-51" value="USER MANAGEMENT CLICKED" style="rounded=0;whiteSpace=wrap;html=1;fillColor=#dae8fc;strokeColor=#6c8ebf;" vertex="1" parent="1">
          <mxGeometry x="380" y="-540" width="120" height="60" as="geometry" />
        </mxCell>
      </root>
    </mxGraphModel>
  </diagram>
</mxfile>
